<?xml version="1.0" encoding="UTF-8"?>
<svg xmlns="http://www.w3.org/2000/svg" xmlns:xlink="http://www.w3.org/1999/xlink" width="188px" height="70px" viewBox="0 0 188 70" version="1.1">
<title>L01A013L011</title>
<g id="canvas" >
<rect x="0" y="0" width="188px" height="70px" fill="white" />
<g id="barcode" fill="black">
<rect x="10" y="10" width="1px" height="50px" />
<rect x="13" y="10" width="1px" height="50px" />
<rect x="15" y="10" width="2px" height="50px" />
<rect x="18" y="10" width="2px" height="50px" />
<rect x="21" y="10" width="1px" height="50px" />
<rect x="23" y="10" width="1px" height="50px" />
<rect x="25" y="10" width="2px" height="50px" />
<rect x="28" y="10" width="1px" height="50px" />
<rect x="30" y="10" width="1px" height="50px" />
<rect x="33" y="10" width="2px" height="50px" />
<rect x="36" y="10" width="1px" height="50px" />
<rect x="38" y="10" width="1px" height="50px" />
<rect x="41" y="10" width="2px" height="50px" />
<rect x="44" y="10" width="2px" height="50px" />
<rect x="47" y="10" width="1px" height="50px" />
<rect x="49" y="10" width="2px" height="50px" />
<rect x="52" y="10" width="1px" height="50px" />
<rect x="55" y="10" width="1px" height="50px" />
<rect x="57" y="10" width="1px" height="50px" />
<rect x="59" y="10" width="2px" height="50px" />
<rect x="62" y="10" width="2px" height="50px" />
<rect x="65" y="10" width="1px" height="50px" />
<rect x="67" y="10" width="1px" height="50px" />
<rect x="70" y="10" width="1px" height="50px" />
<rect x="72" y="10" width="2px" height="50px" />
<rect x="75" y="10" width="1px" height="50px" />
<rect x="77" y="10" width="1px" height="50px" />
<rect x="80" y="10" width="2px" height="50px" />
<rect x="83" y="10" width="2px" height="50px" />
<rect x="86" y="10" width="1px" height="50px" />
<rect x="88" y="10" width="2px" height="50px" />
<rect x="91" y="10" width="1px" height="50px" />
<rect x="94" y="10" width="1px" height="50px" />
<rect x="96" y="10" width="1px" height="50px" />
<rect x="98" y="10" width="2px" height="50px" />
<rect x="101" y="10" width="2px" height="50px" />
<rect x="104" y="10" width="2px" height="50px" />
<rect x="108" y="10" width="1px" height="50px" />
<rect x="110" y="10" width="1px" height="50px" />
<rect x="112" y="10" width="1px" height="50px" />
<rect x="114" y="10" width="1px" height="50px" />
<rect x="116" y="10" width="2px" height="50px" />
<rect x="119" y="10" width="1px" height="50px" />
<rect x="121" y="10" width="1px" height="50px" />
<rect x="124" y="10" width="2px" height="50px" />
<rect x="127" y="10" width="1px" height="50px" />
<rect x="129" y="10" width="1px" height="50px" />
<rect x="132" y="10" width="2px" height="50px" />
<rect x="135" y="10" width="2px" height="50px" />
<rect x="138" y="10" width="1px" height="50px" />
<rect x="140" y="10" width="2px" height="50px" />
<rect x="143" y="10" width="1px" height="50px" />
<rect x="146" y="10" width="1px" height="50px" />
<rect x="148" y="10" width="1px" height="50px" />
<rect x="150" y="10" width="2px" height="50px" />
<rect x="153" y="10" width="2px" height="50px" />
<rect x="156" y="10" width="1px" height="50px" />
<rect x="159" y="10" width="1px" height="50px" />
<rect x="161" y="10" width="1px" height="50px" />
<rect x="163" y="10" width="2px" height="50px" />
<rect x="166" y="10" width="1px" height="50px" />
<rect x="169" y="10" width="1px" height="50px" />
<rect x="171" y="10" width="2px" height="50px" />
<rect x="174" y="10" width="2px" height="50px" />
<rect x="177" y="10" width="1px" height="50px" />

</g></g>
</svg>
