<svg version="1" xmlns="http://www.w3.org/2000/svg" width="800" height="800" viewBox="0 0 600.000000 600.000000"><path d="M274.5 18C206.7 24.9 147 52.9 100 100 26.5 173.4-.6 279.7 28.6 380.1c23.7 81.9 86 150.4 165.8 182.4 23.1 9.3 47.8 15.6 72.6 18.7 13.6 1.7 52.4 1.7 66 0 83.9-10.4 157.3-55.9 203.6-126.2 23.9-36.2 39.1-78 44.6-122 1.7-13.6 1.7-52.4 0-66-11.6-93.7-67.3-174.3-150.5-218C403 34.4 369.9 23.9 338 19.5c-13.7-1.9-50.8-2.7-63.5-1.5zm40 94c67.2 5.5 125.9 45.5 155.1 105.5 35.7 73.6 20.1 161.3-38.7 218-15.5 14.9-30 25.1-48.5 34.1-51.9 25.2-112.9 25.2-164.9 0-37.7-18.4-68.8-49.5-87.1-87.1-38-78.3-17.6-172 49.6-228 28.5-23.7 66.8-39.4 103.7-42.4 14.1-1.2 17.4-1.2 30.8-.1z"/><path d="M283.8 207c-29.8 5-56.5 25.7-69.4 53.5-6.5 14-7.9 21.1-7.9 39.5 0 19.3 1.6 26.4 9 41.5 13.5 27.4 39.9 47 69.5 51.6 10.5 1.6 30.5.6 39.8-2.1 32.4-9.2 57-33.9 66.4-66.7 2-6.7 2.3-10.2 2.3-24.3 0-19.3-1.6-26.4-9-41.5-13.3-27-39.7-46.8-68.5-51.4-7.4-1.2-25.2-1.2-32.2-.1zM529.3 517c-12.6 3-17.1 18.4-7.9 27.6 6.7 6.7 16.5 6.7 23.2 0 11.7-11.7.7-31.5-15.3-27.6zm9.2 3.4c10.7 4.5 9.8 21.7-1.3 25.6-3.7 1.3-4.7 1.3-8.4 0-10.8-3.8-11.9-19.7-1.7-25.2 4.1-2.2 6.8-2.3 11.4-.4z"/><path d="M527 533.6c0 7.2.3 9.5 1.3 9.2.6-.3 1.3-2.3 1.5-4.6.4-5.5 2.3-5.4 5.6.3 1.5 2.5 3.4 4.5 4.2 4.5 1.1 0 .9-1-1.2-4.5-1.4-2.5-2.1-4.5-1.5-4.5.6 0 1.8-1.1 2.7-2.5 1.4-2.1 1.5-3.1.6-5-1-2.3-1.8-2.5-7.2-2.5h-6v9.6zm10-6.1c1.8 2.1-.4 4.5-4.1 4.5-2.6 0-2.9-.4-2.9-3s.3-3 2.9-3c1.6 0 3.4.7 4.1 1.5z"/></svg>